<?xml version="1.0" encoding="iso-8859-1"?>
<!-- Generator: Adobe Illustrator 19.0.0, SVG Export Plug-In . SVG Version: 6.00 Build 0)  -->
<svg version="1.1" id="Layer_1" xmlns="http://www.w3.org/2000/svg" xmlns:xlink="http://www.w3.org/1999/xlink" x="0px" y="0px"
	 viewBox="0 0 511.994 511.994" style="enable-background:new 0 0 511.994 511.994;" xml:space="preserve">
<path style="fill:#81E5EE;" d="M80.936,304.256c3.154,7.498,10.495,12.373,18.629,12.373h250.751v40.42h20.211
	c11.162,0,20.211,9.049,20.211,20.211v-80.841V175.155V74.104h-20.211c-11.162,0-20.211-9.049-20.211-20.211v33.683H20.21
	c-6.769,0-13.09,3.391-16.835,9.029c-3.744,5.64-4.418,12.778-1.793,19.019L80.936,304.256z"/>
<g>
	<path style="fill:#8CB7E8;" d="M370.526,74.104h20.211h33.684c11.162,0,20.211-9.049,20.211-20.211
		c0-11.16-9.049-20.211-20.211-20.211h-53.895c-11.162,0-20.211,9.05-20.211,20.211C350.315,65.055,359.364,74.104,370.526,74.104z"
		/>
	<path style="fill:#8CB7E8;" d="M370.526,357.048h-20.211h-47.158H142.82H61.978c-11.162,0-20.211,9.049-20.211,20.211
		s9.049,20.211,20.211,20.211h23.687h22.155h35.001h35.001h22.155h46.026h22.155h35.001h35.001h22.155h10.213
		c11.162,0,20.211-9.049,20.211-20.211C390.736,366.096,381.687,357.048,370.526,357.048z"/>
</g>
<path style="fill:#FFFFFF;" d="M122.61,417.68c0,11.143,9.065,20.211,20.211,20.211c11.144,0,20.211-9.068,20.211-20.211
	c0-11.144-9.066-20.211-20.211-20.211C131.675,397.469,122.61,406.536,122.61,417.68z"/>
<path style="fill:#57565C;" d="M142.82,397.469c11.144,0,20.211,9.066,20.211,20.211c0,11.143-9.066,20.211-20.211,20.211
	c-11.145,0-20.211-9.068-20.211-20.211C122.61,406.536,131.675,397.469,142.82,397.469H107.82H85.665
	c-2.243,6.326-3.476,13.126-3.476,20.211c0,33.432,27.198,60.632,60.632,60.632s60.632-27.199,60.632-60.632
	c0-7.084-1.233-13.885-3.476-20.211h-22.155H142.82z"/>
<path style="fill:#BDFDFF;" d="M370.526,74.104c-11.162,0-20.211-9.049-20.211-20.211v33.683h-128v229.053h128v40.42h20.211
	c11.162,0,20.211,9.049,20.211,20.211v-80.841V175.155V74.104H370.526z"/>
<path style="fill:#95D6A6;" d="M431.157,209.034c-6.482-3.088-13.234-5.693-20.211-7.776c-6.551-1.958-13.301-3.449-20.211-4.444
	l0,0c-1.202-0.172-2.412-0.313-3.622-0.455c-5.445-0.641-10.976-0.994-16.59-0.994c-1.722,0-3.438,0.032-5.144,0.094
	c-5.094,0.186-10.12,0.645-15.066,1.357c-1.195,0.171-2.382,0.369-3.566,0.571c-0.357,0.061-0.715,0.115-1.071,0.178
	c-1.083,0.193-2.158,0.407-3.231,0.624c-0.476,0.096-0.951,0.189-1.426,0.29c-1.027,0.218-2.047,0.451-3.064,0.693
	c-0.508,0.12-1.017,0.243-1.524,0.368c-1,0.248-1.994,0.505-2.984,0.775c-0.507,0.139-1.011,0.282-1.516,0.424
	c-0.99,0.282-1.982,0.567-2.963,0.87c-0.472,0.144-0.935,0.299-1.403,0.447c-1.015,0.323-2.029,0.649-3.033,0.994
	c-0.314,0.109-0.624,0.226-0.938,0.337c-3.465,1.222-6.872,2.58-10.209,4.06c-0.458,0.202-0.92,0.399-1.376,0.606
	c-0.86,0.392-1.71,0.802-2.559,1.21c-0.55,0.264-1.101,0.527-1.648,0.798c-0.806,0.4-1.603,0.812-2.401,1.227
	c-0.581,0.303-1.16,0.608-1.737,0.918c-0.765,0.414-1.529,0.834-2.288,1.261c-0.593,0.334-1.183,0.674-1.772,1.016
	c-0.734,0.427-1.467,0.857-2.192,1.296c-0.606,0.366-1.207,0.745-1.807,1.121c-0.699,0.439-1.4,0.874-2.091,1.324
	c-0.632,0.411-1.253,0.837-1.877,1.257c-0.647,0.437-1.3,0.866-1.939,1.314c-1.201,0.838-2.386,1.692-3.557,2.565
	c-0.536,0.399-1.059,0.815-1.591,1.222c-0.695,0.534-1.392,1.066-2.079,1.613c-0.554,0.442-1.097,0.896-1.645,1.346
	c-0.649,0.534-1.3,1.068-1.939,1.614c-0.539,0.459-1.071,0.928-1.603,1.396c-0.636,0.558-1.267,1.118-1.892,1.688
	c-0.517,0.47-1.031,0.946-1.54,1.423c-0.631,0.59-1.254,1.188-1.873,1.791c-0.485,0.472-0.971,0.946-1.45,1.424
	c-0.643,0.643-1.273,1.293-1.902,1.947c-0.439,0.455-0.88,0.908-1.314,1.37c-0.703,0.752-1.393,1.516-2.082,2.282
	c-0.34,0.379-0.687,0.752-1.023,1.133c-1.012,1.153-2.008,2.32-2.983,3.506c-0.16,0.195-0.313,0.397-0.474,0.593
	c-0.815,1.004-1.622,2.016-2.412,3.041c-0.325,0.423-0.641,0.854-0.961,1.281c-0.612,0.814-1.219,1.629-1.814,2.455
	c-0.35,0.488-0.693,0.981-1.036,1.473c-0.548,0.784-1.093,1.571-1.625,2.366c-0.345,0.516-0.686,1.035-1.024,1.555
	c-0.517,0.794-1.027,1.594-1.528,2.4c-0.326,0.524-0.651,1.048-0.971,1.576c-0.503,0.833-0.993,1.672-1.481,2.516
	c-0.294,0.508-0.59,1.015-0.877,1.527c-0.519,0.927-1.021,1.865-1.521,2.803c-0.233,0.439-0.474,0.873-0.702,1.316
	c-0.715,1.382-1.413,2.777-2.086,4.188c-3.087,6.482-5.691,13.234-7.776,20.211c-0.505,1.692-0.978,3.398-1.421,5.117
	c-1.271,4.933-2.285,9.969-3.022,15.093c-0.949,6.603-1.45,13.35-1.45,20.211c0,6.861,0.501,13.607,1.45,20.209
	c1.537,10.694,4.271,21.004,8.064,30.79c0.004,0.009,0.008,0.02,0.012,0.03c0.627,1.616,1.283,3.218,1.967,4.802
	c0.016,0.036,0.031,0.073,0.047,0.108c0.682,1.579,1.389,3.142,2.127,4.69c22.746,47.756,71.482,80.843,127.805,80.843
	c78.009,0,141.474-63.465,141.474-141.474C511.999,280.515,478.912,231.781,431.157,209.034z"/>
<path style="fill:#368B4C;" d="M410.947,316.627h-20.211v-20.211c0-11.162-9.049-20.211-20.211-20.211s-20.211,9.049-20.211,20.211
	v20.211h-20.211c-11.162,0-20.211,9.049-20.211,20.211s9.049,20.211,20.211,20.211h20.211v20.211
	c0,11.162,9.049,20.211,20.211,20.211s20.211-9.049,20.211-20.211v-20.211h20.211c11.162,0,20.211-9.049,20.211-20.211
	S422.108,316.627,410.947,316.627z"/>
<path style="fill:#76B46D;" d="M390.736,196.815L390.736,196.815c-1.202-0.172-2.412-0.314-3.622-0.455
	C388.324,196.501,389.534,196.643,390.736,196.815z"/>
<path style="fill:#64C37D;" d="M350.315,377.259v-20.211h-20.211c-11.162,0-20.211-9.049-20.211-20.211s9.049-20.211,20.211-20.211
	h20.211v-20.211c0-11.162,9.049-20.211,20.211-20.211v-80.842c-1.722,0-3.438,0.032-5.144,0.094
	c-5.094,0.186-10.12,0.645-15.066,1.357c-1.195,0.171-2.382,0.369-3.566,0.571c-0.357,0.061-0.715,0.115-1.071,0.178
	c-1.083,0.193-2.159,0.407-3.231,0.624c-0.476,0.096-0.951,0.189-1.426,0.29c-1.027,0.218-2.047,0.451-3.064,0.693
	c-0.508,0.12-1.017,0.243-1.524,0.368c-1,0.248-1.994,0.507-2.984,0.775c-0.507,0.139-1.011,0.282-1.516,0.424
	c-0.99,0.282-1.982,0.567-2.963,0.87c-0.472,0.144-0.935,0.299-1.403,0.447c-1.015,0.323-2.029,0.649-3.033,0.994
	c-0.314,0.109-0.624,0.226-0.938,0.337c-3.465,1.222-6.872,2.58-10.209,4.06c-0.458,0.202-0.92,0.399-1.374,0.606
	c-0.86,0.392-1.71,0.802-2.559,1.21c-0.55,0.264-1.101,0.527-1.648,0.798c-0.806,0.4-1.603,0.812-2.401,1.227
	c-0.581,0.303-1.16,0.608-1.737,0.918c-0.765,0.414-1.529,0.834-2.288,1.261c-0.593,0.334-1.183,0.675-1.772,1.016
	c-0.734,0.427-1.467,0.857-2.192,1.296c-0.606,0.366-1.207,0.745-1.807,1.121c-0.699,0.439-1.4,0.874-2.091,1.324
	c-0.632,0.411-1.253,0.837-1.877,1.257c-0.647,0.437-1.3,0.866-1.939,1.314c-1.201,0.838-2.385,1.692-3.557,2.565
	c-0.536,0.399-1.059,0.815-1.591,1.222c-0.695,0.534-1.392,1.066-2.079,1.613c-0.554,0.442-1.097,0.896-1.645,1.346
	c-0.649,0.534-1.3,1.068-1.939,1.614c-0.539,0.459-1.071,0.928-1.605,1.396c-0.636,0.558-1.267,1.118-1.892,1.688
	c-0.517,0.47-1.031,0.946-1.54,1.423c-0.631,0.591-1.254,1.188-1.873,1.791c-0.485,0.472-0.971,0.946-1.45,1.424
	c-0.643,0.643-1.273,1.293-1.902,1.947c-0.439,0.455-0.88,0.908-1.314,1.37c-0.703,0.752-1.393,1.516-2.082,2.282
	c-0.34,0.379-0.687,0.752-1.023,1.133c-1.012,1.152-2.008,2.32-2.983,3.506c-0.16,0.195-0.313,0.397-0.474,0.593
	c-0.815,1.004-1.622,2.016-2.412,3.041c-0.325,0.423-0.641,0.854-0.961,1.281c-0.612,0.814-1.219,1.629-1.814,2.455
	c-0.35,0.488-0.693,0.981-1.035,1.473c-0.548,0.784-1.093,1.571-1.625,2.366c-0.345,0.516-0.686,1.035-1.024,1.555
	c-0.517,0.794-1.027,1.594-1.528,2.4c-0.326,0.524-0.651,1.048-0.971,1.576c-0.503,0.833-0.993,1.672-1.481,2.516
	c-0.294,0.508-0.59,1.015-0.877,1.527c-0.519,0.927-1.021,1.865-1.521,2.803c-0.233,0.439-0.474,0.873-0.702,1.316
	c-0.715,1.382-1.413,2.777-2.086,4.188c-3.087,6.482-5.691,13.234-7.776,20.211c-0.505,1.692-0.978,3.399-1.421,5.117
	c-1.271,4.933-2.285,9.969-3.022,15.093c-0.949,6.603-1.45,13.35-1.45,20.211c0,6.861,0.501,13.607,1.45,20.209l0,0
	c1.537,10.694,4.271,21.004,8.064,30.79c0.004,0.009,0.008,0.02,0.012,0.031c0.627,1.616,1.283,3.218,1.967,4.802
	c0.016,0.036,0.031,0.073,0.047,0.108c0.682,1.579,1.389,3.142,2.127,4.69l0,0c22.746,47.756,71.482,80.843,127.805,80.843v-80.842
	C359.364,397.469,350.315,388.42,350.315,377.259z"/>
<g>
	<path style="fill:#679D5F;" d="M278.89,229.155c-0.539,0.459-1.071,0.928-1.605,1.396
		C277.819,230.083,278.351,229.616,278.89,229.155z"/>
	<path style="fill:#679D5F;" d="M346.747,197.386c1.186-0.202,2.373-0.399,3.566-0.571v-0.003
		C349.119,196.984,347.933,197.184,346.747,197.386z"/>
	<path style="fill:#679D5F;" d="M245.509,270.702c-0.233,0.439-0.474,0.873-0.702,1.316
		C245.034,271.577,245.276,271.141,245.509,270.702z"/>
	<path style="fill:#679D5F;" d="M291.64,219.481c-0.647,0.437-1.3,0.866-1.939,1.314C290.34,220.347,290.992,219.917,291.64,219.481
		z"/>
	<path style="fill:#679D5F;" d="M270.532,236.876c0.478-0.478,0.965-0.953,1.45-1.424
		C271.497,235.924,271.01,236.397,270.532,236.876z"/>
	<path style="fill:#679D5F;" d="M286.144,223.36c-0.536,0.399-1.059,0.815-1.591,1.222
		C285.085,224.175,285.606,223.76,286.144,223.36z"/>
	<path style="fill:#679D5F;" d="M303.667,212.205c-0.765,0.414-1.529,0.834-2.288,1.261
		C302.137,213.039,302.9,212.618,303.667,212.205z"/>
	<path style="fill:#679D5F;" d="M307.804,210.061c-0.806,0.4-1.603,0.812-2.401,1.227
		C306.201,210.872,306.999,210.461,307.804,210.061z"/>
	<path style="fill:#679D5F;" d="M312.011,208.054c-0.86,0.392-1.71,0.802-2.559,1.21
		C310.302,208.855,311.151,208.446,312.011,208.054z"/>
	<path style="fill:#679D5F;" d="M295.607,216.9c-0.699,0.439-1.4,0.874-2.091,1.324C294.207,217.773,294.909,217.338,295.607,216.9z
		"/>
	<path style="fill:#679D5F;" d="M299.606,214.482c-0.734,0.427-1.467,0.857-2.192,1.296
		C298.138,215.339,298.871,214.91,299.606,214.482z"/>
	<path style="fill:#679D5F;" d="M255.569,254.488c-0.35,0.488-0.693,0.981-1.035,1.473
		C254.878,255.469,255.221,254.974,255.569,254.488z"/>
	<path style="fill:#679D5F;" d="M258.344,250.75c-0.325,0.423-0.641,0.854-0.961,1.281
		C257.702,251.605,258.019,251.173,258.344,250.75z"/>
	<path style="fill:#679D5F;" d="M247.907,266.373c-0.294,0.508-0.59,1.015-0.877,1.527
		C247.315,267.388,247.613,266.881,247.907,266.373z"/>
	<path style="fill:#679D5F;" d="M252.91,258.327c-0.345,0.516-0.686,1.035-1.024,1.555
		C252.224,259.361,252.565,258.843,252.91,258.327z"/>
	<path style="fill:#679D5F;" d="M261.23,247.115c-0.16,0.195-0.313,0.397-0.474,0.593
		C260.916,247.513,261.068,247.31,261.23,247.115z"/>
	<path style="fill:#679D5F;" d="M265.234,242.476c-0.34,0.379-0.687,0.752-1.023,1.133
		C264.547,243.228,264.895,242.855,265.234,242.476z"/>
	<path style="fill:#679D5F;" d="M282.474,226.195c-0.554,0.442-1.097,0.896-1.645,1.346
		C281.377,227.092,281.92,226.636,282.474,226.195z"/>
	<path style="fill:#679D5F;" d="M275.393,232.239c-0.517,0.47-1.031,0.946-1.54,1.423
		C274.364,233.183,274.876,232.709,275.393,232.239z"/>
	<path style="fill:#679D5F;" d="M268.63,238.823c-0.439,0.455-0.88,0.908-1.314,1.37C267.75,239.732,268.19,239.279,268.63,238.823z
		"/>
	<path style="fill:#679D5F;" d="M327.566,202.055c-1.016,0.325-2.029,0.649-3.033,0.994
		C325.537,202.705,326.552,202.38,327.566,202.055z"/>
	<path style="fill:#679D5F;" d="M336.432,199.538c-1,0.248-1.994,0.507-2.984,0.775
		C334.438,200.043,335.432,199.786,336.432,199.538z"/>
	<path style="fill:#679D5F;" d="M331.932,200.737c-0.992,0.283-1.982,0.567-2.963,0.87
		C329.95,201.305,330.941,201.019,331.932,200.737z"/>
	<path style="fill:#679D5F;" d="M250.358,262.281c-0.326,0.524-0.651,1.048-0.971,1.576
		C249.707,263.329,250.032,262.805,250.358,262.281z"/>
	<path style="fill:#679D5F;" d="M345.676,197.563c-1.083,0.193-2.158,0.406-3.231,0.624
		C343.519,197.97,344.594,197.757,345.676,197.563z"/>
	<path style="fill:#679D5F;" d="M341.02,198.478c-1.027,0.218-2.047,0.451-3.064,0.693
		C338.974,198.929,339.994,198.696,341.02,198.478z"/>
	<path style="fill:#679D5F;" d="M323.595,203.388c-3.465,1.223-6.872,2.579-10.209,4.06
		C316.724,205.966,320.129,204.61,323.595,203.388z"/>
	<path style="fill:#679D5F;" d="M234.945,296.417c-0.505,1.692-0.978,3.399-1.421,5.117
		C233.967,299.816,234.44,298.109,234.945,296.417z"/>
	<path style="fill:#679D5F;" d="M350.315,196.815c4.946-0.711,9.971-1.171,15.066-1.357c-5.096,0.183-10.12,0.644-15.066,1.354
		V196.815z"/>
	<path style="fill:#679D5F;" d="M230.502,357.047L230.502,357.047c1.536,10.694,4.27,21.003,8.064,30.79
		C234.773,378.051,232.039,367.741,230.502,357.047z"/>
	<path style="fill:#679D5F;" d="M240.592,392.778c0.682,1.579,1.389,3.142,2.127,4.69l0,0
		C241.981,395.92,241.274,394.357,240.592,392.778z"/>
	<path style="fill:#679D5F;" d="M238.578,387.867c0.627,1.616,1.283,3.218,1.967,4.802
		C239.861,391.084,239.204,389.482,238.578,387.867z"/>
</g>
<g>
</g>
<g>
</g>
<g>
</g>
<g>
</g>
<g>
</g>
<g>
</g>
<g>
</g>
<g>
</g>
<g>
</g>
<g>
</g>
<g>
</g>
<g>
</g>
<g>
</g>
<g>
</g>
<g>
</g>
</svg>
