<?xml version="1.0" encoding="UTF-8" standalone="no"?>
<svg
   width="32px"
   height="32px"
   viewBox="0 0 32 32"
   id="Lager_31"
   data-name="Lager 31"
   version="1.1"
   sodipodi:docname="top-arrow-circle-svgrepo-com.svg"
   inkscape:version="1.1.2 (b8e25be833, 2022-02-05)"
   xmlns:inkscape="http://www.inkscape.org/namespaces/inkscape"
   xmlns:sodipodi="http://sodipodi.sourceforge.net/DTD/sodipodi-0.dtd"
   xmlns="http://www.w3.org/2000/svg"
   xmlns:svg="http://www.w3.org/2000/svg">
  <defs
     id="defs8" />
  <sodipodi:namedview
     id="namedview6"
     pagecolor="#ffffff"
     bordercolor="#666666"
     borderopacity="1.0"
     inkscape:pageshadow="2"
     inkscape:pageopacity="0.0"
     inkscape:pagecheckerboard="0"
     showgrid="false"
     inkscape:zoom="6.4296875"
     inkscape:cx="13.764277"
     inkscape:cy="-3.8882138"
     inkscape:window-width="1920"
     inkscape:window-height="1009"
     inkscape:window-x="-8"
     inkscape:window-y="-8"
     inkscape:window-maximized="1"
     inkscape:current-layer="Lager_31" />
  <g
     id="Group_10"
     data-name="Group 10">
    <path
       id="Path_37"
       data-name="Path 37"
       d="M11.413,17.387,14,14.754V22.02A1.979,1.979,0,0,0,15.98,24h.04A1.979,1.979,0,0,0,18,22.02V15.057l.26.042,2.248,2.227a2.091,2.091,0,0,0,2.657.293A1.973,1.973,0,0,0,23.42,14.6L17.346,8.581a2.017,2.017,0,0,0-2.833,0l-5.934,6a1.97,1.97,0,0,0,0,2.806A2.016,2.016,0,0,0,11.413,17.387Z"
       fill="#040405" />
    <path
       id="Path_38"
       data-name="Path 38"
       d="M16,32A16,16,0,1,0,0,16,16,16,0,0,0,16,32ZM16,4A12,12,0,1,1,4,16,12.013,12.013,0,0,1,16,4Z"
       fill="#040405" />
  </g>
  <path
     style="fill:#826ad9;fill-rule:evenodd;stroke-width:0.0388821"
     d="M 15.572296,31.972592 C 13.03331,31.906765 10.432628,31.190852 8.2148063,29.94723 4.0306555,27.60101 1.1337096,23.540627 0.27515868,18.818955 0.09140303,17.808376 0.04197144,17.210807 0.04197144,16 c 0,-1.876863 0.21861541,-3.256568 0.79172094,-4.996635 C 2.0801724,7.2187948 4.6726427,4.0588909 8.145808,2.0907924 c 2.18151,-1.23617097 4.686907,-1.95151349 7.166054,-2.0460557 3.462245,-0.13203267 6.686195,0.76718126 9.533825,2.6591437 3.946259,2.6218917 6.476467,6.7836507 7.043471,11.5853056 0.0962,0.814673 0.0962,2.606955 0,3.421628 -0.227687,1.928159 -0.765865,3.758553 -1.587804,5.400275 -1.449257,2.89471 -3.705141,5.263363 -6.505485,6.830687 -2.101205,1.176021 -4.643462,1.915938 -6.872972,2.000359 -0.304434,0.01153 -0.64975,0.02525 -0.767368,0.0305 -0.117619,0.0052 -0.380073,0.0052 -0.583233,-3.9e-5 z m 1.671932,-4.021703 c 2.218227,-0.218922 4.515877,-1.161577 6.298907,-2.584248 0.449576,-0.358715 1.47145,-1.387701 1.847879,-1.86074 3.492999,-4.389477 3.498259,-10.584546 0.01274,-14.9991023 C 25.03028,8.0337831 24.010426,7.0071026 23.543135,6.6337295 22.768008,6.0143903 21.520254,5.2711399 20.665857,4.9198196 19.547008,4.4597595 18.388563,4.1660256 17.205346,4.0423773 16.619698,3.9811756 15.358491,3.9804897 14.794654,4.0410669 12.824932,4.2526845 10.987412,4.9075192 9.3951463,5.9652825 8.6355527,6.4698906 8.171644,6.8526542 7.4848117,7.5414688 6.3806176,8.6488496 5.5741216,9.8285881 4.9754852,11.212101 3.576773,14.444673 3.6625301,18.123828 5.2103426,21.287972 c 0.5837423,1.193325 1.2906732,2.182265 2.255028,3.154604 0.9650621,0.973051 1.8869513,1.652462 3.0392054,2.239825 2.117886,1.079592 4.366118,1.502739 6.739652,1.268488 z"
     id="path862" />
  <path
     style="fill:#66f2ca;fill-rule:evenodd;stroke-width:0.0388821;fill-opacity:1"
     d="M 15.586859,23.932295 C 14.828583,23.767369 14.19506,23.12334 14.059151,22.37925 c -0.02828,-0.154816 -0.04272,-1.453089 -0.0439,-3.946537 l -0.0018,-3.715824 -1.38828,1.404347 c -0.763554,0.77239 -1.462793,1.450712 -1.553865,1.507382 C 10.66145,17.883654 10.16017,17.993795 9.7179073,17.925987 9.1958974,17.845945 8.6462109,17.499612 8.354141,17.06671 8.1334985,16.739677 8.0551613,16.49831 8.0370209,16.089622 c -0.019108,-0.430497 0.057613,-0.75258 0.2644663,-1.110254 0.081085,-0.140205 1.092334,-1.18896 3.2299928,-3.349789 1.711574,-1.7301246 3.176596,-3.1903031 3.255606,-3.2448409 0.670676,-0.4629425 1.549973,-0.4776862 2.220744,-0.037236 0.278193,0.1826707 6.457251,6.3047259 6.640112,6.5788559 0.499307,0.74852 0.417669,1.751883 -0.196126,2.410462 -0.599541,0.643286 -1.679432,0.785229 -2.474902,0.325306 -0.09623,-0.05564 -0.746894,-0.65889 -1.445913,-1.340557 -1.074916,-1.048233 -1.292136,-1.242833 -1.40834,-1.261691 l -0.137396,-0.0223 -0.01095,3.688986 -0.01095,3.688985 -0.08756,0.230154 c -0.12332,0.324142 -0.290917,0.570033 -0.555468,0.81496 -0.26461,0.244984 -0.559464,0.395842 -0.92517,0.473352 -0.31437,0.06663 -0.495812,0.06624 -0.808303,-0.0017 z"
     id="path901" />
  <path
     style="fill:#66f2ca;fill-opacity:1;fill-rule:evenodd;stroke-width:0.0388821"
     d="M 15.105711,31.934854 C 14.642615,31.90913 13.699156,31.794448 13.200486,31.703264 9.4719094,31.021476 6.1399112,29.07806 3.7339303,26.181817 1.7899519,23.841717 0.57012118,21.024697 0.14998674,17.905225 0.0644799,17.270342 0.05159755,15.009093 0.1294969,14.308627 0.33676688,12.444868 0.89245356,10.574125 1.7464376,8.8651276 2.5226361,7.3117947 3.4531148,6.0175965 4.6848922,4.7780468 5.9657588,3.4890976 7.2447782,2.5604153 8.8456865,1.7569386 11.757774,0.2953966 14.914044,-0.23339627 18.153894,0.19746689 c 4.524055,0.60164784 8.652415,3.20419671 11.169967,7.04163061 1.198982,1.8275737 2.021748,3.9226115 2.402244,6.1169175 0.181436,1.046331 0.19499,1.230121 0.19499,2.643985 0,1.413709 -0.01251,1.583327 -0.196096,2.658292 -0.738751,4.325721 -3.238449,8.180349 -6.879312,10.60816 -2.005804,1.337516 -4.400238,2.240078 -6.784934,2.557525 -0.790447,0.105223 -2.143117,0.155977 -2.955042,0.110877 z m 1.812093,-3.940943 c 1.057154,-0.08457 1.838143,-0.243584 2.854351,-0.581163 1.384819,-0.46003 2.738807,-1.18668 3.790421,-2.034221 0.514768,-0.414874 1.747217,-1.706442 2.125169,-2.227111 1.265664,-1.743588 2.022879,-3.684591 2.26656,-5.809982 0.07876,-0.68698 0.07876,-1.995888 0,-2.682868 C 27.711763,12.543112 26.95429,10.600225 25.688177,8.8460419 25.233032,8.2154432 23.77742,6.7494054 23.215424,6.3555756 22.248662,5.6780987 21.057286,5.0280535 20.225445,4.7241666 19.404141,4.4241287 18.41597,4.1815325 17.51006,4.057539 16.779279,3.9575154 15.070773,3.9663673 14.366462,4.0738259 12.343673,4.3824486 10.618988,5.0669041 9.0254208,6.1934627 7.8115087,7.0516273 6.4890549,8.4688844 5.7148804,9.7413265 4.8093772,11.229622 4.2550692,12.858345 4.0413815,14.658566 c -0.067551,0.569083 -0.077204,1.939238 -0.01767,2.507898 0.2508081,2.395656 1.1284425,4.547497 2.600647,6.376435 0.3037348,0.377334 1.2404071,1.332997 1.6380955,1.671308 1.5349016,1.305732 3.511107,2.236997 5.560146,2.620158 0.354916,0.06637 0.8888,0.131893 1.419198,0.174184 0.372266,0.02968 1.213883,0.02233 1.676006,-0.01464 z"
     id="path977" />
</svg>
