<?xml version="1.0" encoding="UTF-8" standalone="no"?>
<!-- Created with Inkscape (http://www.inkscape.org/) -->

<svg
   width="48.599998mm"
   height="14.98mm"
   viewBox="0 0 183.68495 56.61728"
   version="1.1"
   id="svg5"
   inkscape:version="1.1.2 (b8e25be833, 2022-02-05)"
   sodipodi:docname="logo.svg"
   xmlns:inkscape="http://www.inkscape.org/namespaces/inkscape"
   xmlns:sodipodi="http://sodipodi.sourceforge.net/DTD/sodipodi-0.dtd"
   xmlns="http://www.w3.org/2000/svg"
   xmlns:svg="http://www.w3.org/2000/svg">
  <sodipodi:namedview
     id="namedview7"
     pagecolor="#ffffff"
     bordercolor="#666666"
     borderopacity="1.0"
     inkscape:pageshadow="2"
     inkscape:pageopacity="0.0"
     inkscape:pagecheckerboard="0"
     inkscape:document-units="mm"
     showgrid="false"
     inkscape:zoom="1.7170099"
     inkscape:cx="269.36362"
     inkscape:cy="71.053755"
     inkscape:window-width="1920"
     inkscape:window-height="1017"
     inkscape:window-x="-8"
     inkscape:window-y="-8"
     inkscape:window-maximized="1"
     inkscape:current-layer="layer1"
     showguides="true"
     inkscape:guide-bbox="true"
     width="85.6mm"
     inkscape:snap-to-guides="false"
     inkscape:snap-others="false"
     inkscape:object-nodes="false"
     inkscape:snap-nodes="false"
     inkscape:snap-global="false" />
  <defs
     id="defs2">
    <inkscape:path-effect
       effect="bspline"
       id="path-effect14363"
       is_visible="true"
       lpeversion="1"
       weight="33.333333"
       steps="2"
       helper_size="0"
       apply_no_weight="true"
       apply_with_weight="true"
       only_selected="false" />
    <linearGradient
       id="linearGradient12918"
       inkscape:swatch="solid">
      <stop
         style="stop-color:#2081e2;stop-opacity:1;"
         offset="0"
         id="stop12916" />
    </linearGradient>
    <inkscape:path-effect
       effect="bspline"
       id="path-effect10655"
       is_visible="true"
       lpeversion="1"
       weight="33.333333"
       steps="2"
       helper_size="0"
       apply_no_weight="true"
       apply_with_weight="true"
       only_selected="false" />
    <inkscape:perspective
       sodipodi:type="inkscape:persp3d"
       inkscape:vp_x="-29.598167 : 15.238576 : 1"
       inkscape:vp_y="0 : 1300.5368 : 0"
       inkscape:vp_z="426.49218 : 15.238576 : 1"
       inkscape:persp3d-origin="198.44701 : -2.7682137 : 1"
       id="perspective10184" />
  </defs>
  <g
     inkscape:label="Capa 1"
     inkscape:groupmode="layer"
     id="layer1">
    <text
       xml:space="preserve"
       style="font-style:normal;font-variant:normal;font-weight:normal;font-stretch:normal;font-size:16.1455px;line-height:1.25;font-family:'Poor Richard';-inkscape-font-specification:'Poor Richard';stroke-width:0.78094"
       x="48.285339"
       y="38.231411"
       id="text2696"
       transform="scale(1.0041675,0.9958498)"><tspan
         sodipodi:role="line"
         id="tspan2694"
         x="48.285339"
         y="38.231411"
         style="font-style:normal;font-variant:normal;font-weight:normal;font-stretch:normal;font-size:16.1455px;font-family:BIOWEAPON;-inkscape-font-specification:BIOWEAPON;stroke-width:0.78094">pen World</tspan></text>
    <path
       style="fill:#2081e2;fill-opacity:1;stroke-width:0.497257"
       id="path14558"
       d="m 31.786654,12.024901 c -1.449007,0.0032 -2.889352,-0.156404 -4.339175,-0.08928 -0.302723,0.06127 -0.610402,0.101774 -0.908169,0.183814 -0.563314,0.155202 -1.349246,0.479177 -1.850506,0.764788 -4.034555,2.298838 -6.021558,3.076592 -8.861616,5.599397 -2.165796,2.095325 -3.765606,4.652312 -5.347737,7.191913 -0.8711009,1.335052 -1.7872409,2.641649 -2.3635116,4.13926 -0.3146165,0.817624 -0.3506201,1.088912 -0.5511647,1.92887 -0.25897,2.221147 0.3195446,3.300851 1.5889079,5.036243 1.0202234,1.275159 2.1311334,2.477619 3.2385484,3.677476 1.006975,1.209972 2.191466,2.249759 3.413967,3.234289 0.953986,0.743992 1.879982,1.517644 2.93452,2.115765 0.783647,0.459568 1.641874,0.677723 2.53409,0.792738 1.24391,0.146314 2.493174,0.123999 3.737213,0.0051 0.647387,-0.107658 1.325731,-0.223686 1.906365,-0.553311 5.631895,-3.197227 5.379695,-2.843188 8.598189,-5.329034 1.762854,-1.380968 3.529799,-2.751575 5.118222,-4.333914 1.405922,-1.281139 2.542109,-2.802534 3.263503,-4.569829 0.158559,-0.388444 0.274104,-0.793087 0.411156,-1.189632 0.276731,-1.12172 0.552006,-2.301906 0.406813,-3.468748 -0.133806,-1.075332 -0.651236,-2.057773 -1.107836,-3.02037 -0.936969,-1.741484 -2.08353,-3.353329 -3.395267,-4.829104 -1.253817,-1.306299 -2.543581,-2.579482 -3.811424,-3.873738 -0.652962,-0.634531 -1.355153,-1.231188 -2.099829,-1.75682 -0.686522,-0.496675 -1.371471,-0.995392 -2.057498,-1.493222 -0.60231,-0.467898 -1.279828,-0.811546 -1.975598,-1.114556 -0.115966,-0.04388 -0.231932,-0.08777 -0.347898,-0.13165 0,0 -6.112374,4.148914 -6.112374,4.148914 v 0 c 0.108202,0.03036 0.216402,0.06071 0.324602,0.09107 0.668137,0.24593 1.309875,0.566153 1.911152,0.94696 0.397379,0.280933 0.810571,0.532752 1.187251,0.842015 0.112271,0.09218 0.21906,0.190839 0.328589,0.286257 0.09414,0.09126 0.182328,0.189087 0.282424,0.27377 0.07364,0.0623 0.158108,0.110539 0.237162,0.165808 0.762229,0.395233 1.468465,1.019864 2.15217,1.532977 1.31838,1.228756 2.598737,2.496183 3.861231,3.781877 1.261491,1.42907 2.372274,2.985809 3.301851,4.652006 0.326766,0.681108 0.561171,1.098276 0.773992,1.827707 0.401765,1.377018 0.153885,2.776605 -0.26425,4.119002 -0.394386,0.979432 -0.464702,1.269371 -1.011381,2.172394 -0.755865,1.248564 -1.774486,2.300585 -2.816192,3.31037 -1.637324,1.536376 -3.418347,2.897716 -5.190498,4.273631 -0.275059,0.207536 -0.546295,0.420239 -0.825177,0.622608 -2.076238,1.506614 -3.961467,2.383228 4.528023,-2.452821 0.174912,-0.09964 -0.530224,0.351567 -1.167772,0.556999 -0.179133,0.05772 -0.366005,0.08788 -0.549007,0.131817 -1.199211,0.214287 -2.427272,0.278013 -3.640559,0.153945 -0.810048,-0.08694 -1.590294,-0.251079 -2.334061,-0.597422 -1.062733,-0.537246 -2.055174,-1.174597 -2.975222,-1.937497 -1.215075,-0.937665 -2.350568,-1.976092 -3.34764,-3.145976 -1.103746,-1.169523 -2.194192,-2.3529 -3.232082,-3.581435 -1.082005,-1.475376 -1.651577,-2.58659 -1.312428,-4.468019 0.212886,-0.795099 0.247352,-1.026288 0.567657,-1.797594 0.592443,-1.426622 1.499075,-2.681434 2.284222,-4.002424 1.561167,-2.537642 3.20695,-5.050908 5.489799,-7.010733 0.327133,-0.26172 0.645284,-0.535077 0.981397,-0.785157 1.685053,-1.253737 5.941556,-3.522524 -4.237759,2.298258 -0.289898,0.165771 0.578455,-0.334715 0.877226,-0.483902 0.2744,-0.137019 0.554723,-0.263125 0.840716,-0.373932 0.26969,-0.104492 0.549481,-0.180765 0.824221,-0.271147 0.273555,-0.03746 0.544857,-0.09954 0.820667,-0.112399 0.273776,-0.01276 0.547719,0.0219 0.821436,0.03586 0.824086,0.04201 1.657413,0.08102 2.466286,0.253645 0,0 6.020063,-4.373832 6.020063,-4.373832 z" />
  </g>
</svg>
