<?xml version="1.0" encoding="UTF-8" standalone="no"?>
<!-- Created with Inkscape (http://www.inkscape.org/) -->

<svg
   width="222"
   height="45.000011"
   viewBox="0 0 58.73743 11.906268"
   version="1.1"
   id="svg24164"
   inkscape:version="1.1.2 (b8e25be833, 2022-02-05)"
   sodipodi:docname="logo.svg"
   xmlns:inkscape="http://www.inkscape.org/namespaces/inkscape"
   xmlns:sodipodi="http://sodipodi.sourceforge.net/DTD/sodipodi-0.dtd"
   xmlns="http://www.w3.org/2000/svg"
   xmlns:svg="http://www.w3.org/2000/svg">
  <sodipodi:namedview
     id="namedview24166"
     pagecolor="#ffffff"
     bordercolor="#666666"
     borderopacity="1.0"
     inkscape:pageshadow="2"
     inkscape:pageopacity="0.0"
     inkscape:pagecheckerboard="0"
     inkscape:document-units="mm"
     showgrid="false"
     units="px"
     inkscape:zoom="2.932688"
     inkscape:cx="66.662393"
     inkscape:cy="-32.052506"
     inkscape:window-width="1920"
     inkscape:window-height="1009"
     inkscape:window-x="-8"
     inkscape:window-y="-8"
     inkscape:window-maximized="1"
     inkscape:current-layer="layer1"
     height="44.00001px"
     width="129px" />
  <defs
     id="defs24161">
    <linearGradient
       id="linearGradient5845"
       inkscape:swatch="solid">
      <stop
         style="stop-color:#152c70;stop-opacity:1;"
         offset="0"
         id="stop5843" />
    </linearGradient>
  </defs>
  <g
     inkscape:label="Capa 1"
     inkscape:groupmode="layer"
     id="layer1">
    <text
       xml:space="preserve"
       style="font-style:normal;font-weight:normal;font-size:9.87779px;line-height:1.25;font-family:sans-serif;mix-blend-mode:multiply;fill:#152c70;fill-opacity:1;stroke:none;stroke-width:0.28768"
       x="2.890353"
       y="9.1796217"
       id="text4340"><tspan
         sodipodi:role="line"
         id="tspan4338"
         style="font-style:normal;font-variant:normal;font-weight:bold;font-stretch:normal;font-size:9.87779px;font-family:Consolas;-inkscape-font-specification:'Consolas Bold';fill:#826ad9;fill-opacity:1;stroke-width:0.28768"
         x="2.890353"
         y="9.1796217">Art</tspan></text>
    <text
       xml:space="preserve"
       style="font-style:normal;font-weight:normal;font-size:10.5833px;line-height:1.25;font-family:sans-serif;fill:#4296ff;fill-opacity:1;stroke:none;stroke-width:0.264584"
       x="18.31435"
       y="9.2925386"
       id="text52434"><tspan
         sodipodi:role="line"
         id="tspan52432"
         style="font-style:normal;font-variant:normal;font-weight:bold;font-stretch:normal;font-family:Consolas;-inkscape-font-specification:'Consolas Bold';fill:#66f2ca;fill-opacity:1;stroke-width:0.264584"
         x="18.31435"
         y="9.2925386">shop</tspan></text>
    <g
       id="g6204"
       transform="matrix(0.02085083,0,0,0.02085083,42.263479,0.75449077)">
      <rect
         x="61.213001"
         y="10.881"
         style="fill:#b27214"
         width="389.90399"
         height="491.62399"
         id="rect6094" />
      <rect
         x="96.804001"
         y="46.373001"
         style="fill:#2197d8"
         width="318.39499"
         height="419.245"
         id="rect6096" />
      <rect
         x="96.804001"
         y="161.938"
         style="fill:#9ad14b"
         width="318.39499"
         height="303.67999"
         id="rect6098" />
      <path
         style="fill:#80a52f"
         d="m 96.796,235.777 c 46.973,0 52.366,16.968 89.787,20.855 l 118.082,-42.365 c 1.43,-0.033 2.891,-0.054 4.397,-0.054 53.07,0 53.07,21.656 106.138,21.656 V 465.624 H 96.8 Z"
         id="path6100" />
      <path
         style="fill:#666666"
         d="m 289.865,414.773 c -3.029,-7.81 -7.708,-14.636 -13.563,-20.129 l 88.135,-72.526 v 96.973 c 0,25.701 -20.83,46.531 -46.531,46.531 h -75.499 -15.823 l 6.781,-50.849 h 9.042 z"
         id="path6102" />
      <path
         style="fill:#4d4d4d"
         d="m 364.438,292.121 v 29.996 l -88.135,72.526 c -9.957,-9.37 -23.294,-14.896 -37.557,-14.896 h -35.444 l 59.348,-53.132 11.958,-10.715 59.947,-53.674 c 8.251,0 15.721,3.345 21.135,8.759 5.402,5.403 8.748,12.874 8.748,21.136 z"
         id="path6104" />
      <g
         id="g6112">
	<path
   style="fill:#fcd495"
   d="m 289.865,414.773 h -47.458 -9.042 -16.354 l 21.734,-35.026 c 14.263,0 27.6,5.527 37.557,14.896 5.855,5.493 10.534,12.32 13.563,20.13 z"
   id="path6106" />

	<path
   style="fill:#fcd495"
   d="m 273.59,314.77 1.017,1.13 -11.958,10.715 -0.011,-0.011 c -29.623,-1.017 -54.872,-19.214 -66.095,-44.926 14.829,-12.523 23.52,-31.036 23.52,-50.645 v -14.037 c 3.221,0.757 6.578,1.164 10.025,1.164 24.029,0 43.502,-19.474 43.502,-43.502 z"
   id="path6108" />

	<path
   style="fill:#fcd495"
   d="m 220.063,216.995 c -7.991,-1.887 -15.122,-5.968 -20.728,-11.573 -7.878,-7.878 -12.749,-18.75 -12.749,-30.765 v -39.264 c 0,-1.967 0.09,-3.911 0.283,-5.821 0.023,-0.192 0.045,-0.384 0.068,-0.565 2.724,-21.418 21.011,-37.964 43.152,-37.964 12.014,0 22.887,4.871 30.765,12.738 7.866,7.878 12.738,18.75 12.738,30.765 v 33.895 6.216 c 0,24.029 -19.474,43.502 -43.502,43.502 -3.449,0 -6.806,-0.407 -10.027,-1.164 z"
   id="path6110" />

</g>
      <g
         id="g6118">
	<path
   style="fill:#666666"
   d="m 186.586,289.329 c 1.628,-1.39 3.323,-2.701 5.097,-3.933 1.684,-1.175 3.3,-2.419 4.86,-3.718 11.223,25.713 36.472,43.909 66.095,44.926 l 0.011,0.011 -59.348,53.132 c -11.042,0 -21.045,-4.476 -28.289,-11.709 -7.233,-7.233 -11.709,-17.236 -11.709,-28.278 0,-10.839 2.645,-21.339 7.527,-30.663 3.9,-7.471 9.223,-14.207 15.756,-19.768 z"
   id="path6114" />

	<path
   style="fill:#666666"
   d="m 238.745,379.747 -21.734,35.026 c -29.657,0 -53.708,-24.04 -53.708,-53.708 V 339.76 c 0,11.042 4.476,21.045 11.709,28.278 7.245,7.233 17.247,11.709 28.289,11.709 z"
   id="path6116" />

</g>
      <path
         style="fill:#fcd495"
         d="m 233.366,414.773 -6.781,50.849 h -9.573 c -29.657,0 -53.708,-24.04 -53.708,-53.708 v -50.849 c 0,29.668 24.051,53.708 53.708,53.708 z"
         id="path6120" />
      <g
         id="g6126">
	<path
   style="fill:#995c0d"
   d="m 220.063,216.995 v 14.037 c 0,19.609 -8.691,38.122 -23.52,50.645 -1.56,1.3 -3.176,2.543 -4.86,3.718 -1.774,1.232 -3.47,2.543 -5.097,3.933 V 174.657 c 0,12.014 4.871,22.887 12.749,30.765 5.605,5.605 12.737,9.685 20.728,11.573 z"
   id="path6122" />

	<path
   style="fill:#995c0d"
   d="m 230.088,91.043 c -22.141,0 -40.428,16.546 -43.152,37.964 3.176,-29.601 28.244,-52.657 58.692,-52.657 16.298,0 31.059,6.612 41.75,17.292 10.681,10.692 17.292,25.453 17.292,41.75 v 96.951 c 0,16.501 13.382,29.883 29.883,29.883 l -59.947,53.674 -1.017,-1.13 v -140.113 -6.216 -33.895 c 0,-12.014 -4.871,-22.887 -12.738,-30.765 -7.876,-7.867 -18.749,-12.738 -30.763,-12.738 z"
   id="path6124" />

</g>
      <g
         id="g6132">
	<path
   style="fill:#333333"
   d="m 243.087,144.145 h -11.865 c -4.681,0 -8.477,3.795 -8.477,8.477 0,4.682 3.795,8.477 8.477,8.477 h 11.865 c 4.681,0 8.477,-3.795 8.477,-8.477 0,-4.682 -3.796,-8.477 -8.477,-8.477 z"
   id="path6128" />

	<path
   style="fill:#333333"
   d="M 453.099,0 H 58.901 C 54.22,0 50.424,3.795 50.424,8.477 v 495.047 c 0,4.681 3.795,8.477 8.477,8.477 h 394.198 c 4.681,0 8.477,-3.795 8.477,-8.477 V 8.477 C 461.576,3.795 457.78,0 453.099,0 Z m -46.375,227.183 c -19.335,-0.992 -30.089,-5.378 -41.39,-9.99 -13.117,-5.354 -26.67,-10.876 -52.188,-11.411 v -35.361 h 93.578 z m -50.76,90.932 -79.7,65.582 c -10.686,-7.873 -23.793,-12.429 -37.523,-12.429 H 225.472 L 337.536,270.937 c 10.396,1.458 18.428,10.386 18.428,21.177 z M 105.276,170.421 h 72.835 v 4.236 72.167 c -9.96,-1.923 -17.347,-4.927 -25.054,-8.071 -12.341,-5.035 -25.067,-10.219 -47.781,-11.26 0,-0.001 0,-57.072 0,-57.072 z m 154.363,147.504 c -22.135,-1.882 -42.053,-14.922 -52.708,-34.331 13.712,-13.863 21.61,-32.717 21.61,-52.563 v -4.433 c 0.517,0.015 1.032,0.04 1.553,0.04 13.482,0 25.78,-5.162 35.027,-13.61 v 99.991 z M 195.065,213.027 c 4.777,4.365 10.373,7.843 16.522,10.193 v 7.81 c 0,15.252 -6.039,29.74 -16.522,40.44 z m 70.054,-38.37 c 0,19.314 -15.714,35.027 -35.027,35.027 -19.314,0 -35.028,-15.713 -35.028,-35.027 v -16.948 h 4.607 c 0.573,0 1.04,0.467 1.04,1.04 v 15.908 c 0,4.681 3.795,8.477 8.477,8.477 4.682,0 8.477,-3.795 8.477,-8.477 v -15.908 c 0,-9.921 -8.072,-17.993 -17.993,-17.993 h -4.607 v -5.365 c 0,-1.651 0.086,-3.282 0.241,-4.894 2.013,-17.414 16.841,-30.982 34.786,-30.982 19.313,0 35.027,15.713 35.027,35.027 z m -71.471,119.838 c 11.159,18.587 29.238,32.131 49.997,37.748 l -43.419,38.873 c -15.941,-1.548 -28.442,-15.021 -28.442,-31.361 -0.001,-17.683 8.111,-34.345 21.864,-45.26 z m 9.648,93.728 h 20.213 l -11.068,17.845 c -16.358,-1.65 -30.159,-12.057 -36.66,-26.443 7.823,5.415 17.302,8.598 27.515,8.598 z m 28.952,18.075 11.063,-17.837 c 12.733,1.285 24.372,7.873 32.106,17.837 z M 282.073,297.84 V 134.543 c 0,-23.375 -15.511,-43.191 -36.781,-49.708 0.113,-10e-4 0.224,-0.009 0.337,-0.009 27.881,0 50.564,22.684 50.564,50.564 v 96.954 c 0,14.867 8.506,27.775 20.901,34.141 z M 406.724,153.467 h -93.578 v -18.078 c 0,-37.23 -30.288,-67.517 -67.517,-67.517 -34.994,0 -64.177,26.763 -67.517,60.893 -0.211,1.898 0,24.702 0,24.702 H 105.277 V 54.852 h 301.447 z m -301.448,90.998 c 19.329,0.992 30.08,5.376 41.377,9.986 8.974,3.661 18.223,7.421 31.458,9.593 v 21.513 c -14.738,13.996 -23.281,33.56 -23.281,54.2 v 72.158 c 0,17.811 7.539,33.884 19.578,45.233 H 105.277 V 244.465 Z m 66.507,167.45 v -8.242 c 11.347,12.039 27.421,19.578 45.233,19.578 h 6.667 l -4.52,33.895 h -2.149 c -24.94,10e-4 -45.231,-20.29 -45.231,-45.231 z m 69.003,11.337 h 72.807 c 4.681,0 8.477,-3.795 8.477,-8.477 0,-4.681 -3.795,-8.477 -8.477,-8.477 h -18.236 c -1.921,-3.831 -4.212,-7.424 -6.827,-10.737 l 67.436,-55.491 v 79.017 c 0,20.986 -17.073,38.059 -38.059,38.059 h -81.638 z m 132.132,-4.164 V 292.115 c 0,-21.153 -17.21,-38.362 -38.362,-38.362 -11.805,0 -21.409,-9.603 -21.409,-21.409 v -9.606 c 22.155,0.513 33.654,5.202 45.782,10.152 12.344,5.037 25.073,10.225 47.796,11.265 v 212.993 h -49.153 c 9.492,-9.891 15.346,-23.301 15.346,-38.06 z M 411.69,37.899 H 100.311 L 79.366,16.953 H 432.635 Z M 88.323,49.887 V 462.113 L 67.378,483.058 V 28.942 Z M 100.311,474.1 H 411.69 l 20.945,20.945 H 79.366 Z M 423.677,462.113 V 49.887 l 20.945,-20.945 v 454.117 z"
   id="path6130" />

</g>
      <g
         id="g6134">
</g>
      <g
         id="g6136">
</g>
      <g
         id="g6138">
</g>
      <g
         id="g6140">
</g>
      <g
         id="g6142">
</g>
      <g
         id="g6144">
</g>
      <g
         id="g6146">
</g>
      <g
         id="g6148">
</g>
      <g
         id="g6150">
</g>
      <g
         id="g6152">
</g>
      <g
         id="g6154">
</g>
      <g
         id="g6156">
</g>
      <g
         id="g6158">
</g>
      <g
         id="g6160">
</g>
      <g
         id="g6162">
</g>
    </g>
  </g>
</svg>
