<?xml version="1.0" encoding="UTF-8" standalone="no"?>
<!-- Generator: Adobe Illustrator 19.0.0, SVG Export Plug-In . SVG Version: 6.00 Build 0)  -->

<svg
   version="1.1"
   id="Layer_1"
   x="0px"
   y="0px"
   viewBox="0 0 297 297"
   style="enable-background:new 0 0 297 297;"
   xml:space="preserve"
   sodipodi:docname="menu-icon.svg"
   inkscape:version="1.1.2 (b8e25be833, 2022-02-05)"
   xmlns:inkscape="http://www.inkscape.org/namespaces/inkscape"
   xmlns:sodipodi="http://sodipodi.sourceforge.net/DTD/sodipodi-0.dtd"
   xmlns="http://www.w3.org/2000/svg"
   xmlns:svg="http://www.w3.org/2000/svg"><defs
   id="defs47" /><sodipodi:namedview
   id="namedview45"
   pagecolor="#ffffff"
   bordercolor="#666666"
   borderopacity="1.0"
   inkscape:pageshadow="2"
   inkscape:pageopacity="0.0"
   inkscape:pagecheckerboard="0"
   showgrid="false"
   inkscape:zoom="2.7710438"
   inkscape:cx="148.5"
   inkscape:cy="148.68044"
   inkscape:window-width="1920"
   inkscape:window-height="1009"
   inkscape:window-x="-8"
   inkscape:window-y="-8"
   inkscape:window-maximized="1"
   inkscape:current-layer="Layer_1" />
<g
   id="g12"
   style="fill:#66f2ca;fill-opacity:1">
	<g
   id="g10"
   style="fill:#66f2ca;fill-opacity:1">
		<g
   id="g8"
   style="fill:#66f2ca;fill-opacity:1">
			<path
   d="M280.214,39.211H16.786C7.531,39.211,0,46.742,0,55.997v24.335c0,9.256,7.531,16.787,16.786,16.787h263.428     c9.255,0,16.786-7.531,16.786-16.787V55.997C297,46.742,289.469,39.211,280.214,39.211z"
   id="path2"
   style="fill:#66f2ca;fill-opacity:1" />
			<path
   d="M280.214,119.546H16.786C7.531,119.546,0,127.077,0,136.332v24.336c0,9.255,7.531,16.786,16.786,16.786h263.428     c9.255,0,16.786-7.531,16.786-16.786v-24.336C297,127.077,289.469,119.546,280.214,119.546z"
   id="path4"
   style="fill:#66f2ca;fill-opacity:1" />
			<path
   d="M280.214,199.881H16.786C7.531,199.881,0,207.411,0,216.668v24.335c0,9.255,7.531,16.786,16.786,16.786h263.428     c9.255,0,16.786-7.531,16.786-16.786v-24.335C297,207.411,289.469,199.881,280.214,199.881z"
   id="path6"
   style="fill:#66f2ca;fill-opacity:1" />
		</g>
	</g>
</g>
<g
   id="g14">
</g>
<g
   id="g16">
</g>
<g
   id="g18">
</g>
<g
   id="g20">
</g>
<g
   id="g22">
</g>
<g
   id="g24">
</g>
<g
   id="g26">
</g>
<g
   id="g28">
</g>
<g
   id="g30">
</g>
<g
   id="g32">
</g>
<g
   id="g34">
</g>
<g
   id="g36">
</g>
<g
   id="g38">
</g>
<g
   id="g40">
</g>
<g
   id="g42">
</g>
</svg>
