<?xml version="1.0" encoding="iso-8859-1"?>
<!-- Generator: Adobe Illustrator 19.0.0, SVG Export Plug-In . SVG Version: 6.00 Build 0)  -->
<svg version="1.1" id="Layer_1" xmlns="http://www.w3.org/2000/svg" xmlns:xlink="http://www.w3.org/1999/xlink" x="0px" y="0px"
	 viewBox="0 0 504.428 504.428" style="enable-background:new 0 0 504.428 504.428;" xml:space="preserve">
<ellipse style="opacity:0.5;fill:#B8CBCD;enable-background:new    ;" cx="293.728" cy="364.914" rx="190.7" ry="47.3"/>
<path style="fill:#84C671;" d="M60.428,164.214c0-8.8,7.2-16,16-16h400c8.8,0,16,7.2,16,16v140c0,8.8-7.2,16-16,16h-400
	c-8.8,0-16-7.2-16-16V164.214z"/>
<path style="fill:#3C663E;" d="M476.428,323.214h-400c-10.5,0-19-8.5-19-19v-140c0-10.5,8.5-19,19-19h400c10.5,0,19,8.5,19,19v140
	C495.428,314.714,486.928,323.214,476.428,323.214z M76.428,151.214c-7.2,0-13,5.8-13,13v140c0,7.2,5.8,13,13,13h400
	c7.2,0,13-5.8,13-13v-140c0-7.2-5.8-13-13-13H76.428z"/>
<path style="fill:#B2EDA6;" d="M60.428,276.214v-156c0-8.8,7.2-16,16-16h400c8.8,0,16,7.2,16,16v156"/>
<g>
	<path style="fill:#3C663E;" d="M492.428,279.214c-1.7,0-3-1.3-3-3v-156c0-7.2-5.8-13-13-13h-400c-7.2,0-13,5.8-13,13v156
		c0,1.7-1.3,3-3,3s-3-1.3-3-3v-156c0-10.5,8.5-19,19-19h400c10.5,0,19,8.5,19,19v156
		C495.428,277.914,494.128,279.214,492.428,279.214z"/>
	<path style="fill:#3C663E;" d="M492.428,288.714h-428.3c-4.7,0-8.5-3.8-8.5-8.5s3.8-8.5,8.5-8.5h428.3c4.7,0,8.5,3.8,8.5,8.5
		S497.128,288.714,492.428,288.714z"/>
</g>
<polygon style="fill:#FFFFFF;" points="106.428,368.214 185.528,188.014 8.428,263.914 59.028,276.514 14.728,320.814 
	52.728,358.714 96.928,314.414 "/>
<g>
	<path style="fill:#3C663E;" d="M106.428,376.714c-0.3,0-0.7,0-1-0.1c-3.7-0.4-6.7-3.3-7.4-7l-6.6-37.6l-32.7,32.7
		c-1.6,1.6-3.8,2.5-6,2.5s-4.4-0.9-6-2.5l-37.9-37.9c-3.3-3.3-3.3-8.7,0-12l33.6-33.7l-36-9c-3.5-0.9-6.1-3.9-6.4-7.6
		c-0.3-3.6,1.8-7.1,5.1-8.5l177.1-75.9c3.2-1.4,6.9-0.6,9.4,1.8c2.5,2.5,3.1,6.2,1.7,9.4l-79,180.2
		C112.828,374.714,109.828,376.714,106.428,376.714z M26.728,320.814l25.9,25.9l38.3-38.3c2.2-2.2,5.5-3,8.6-2.1
		c3,1,5.3,3.5,5.8,6.6l4.6,26.1l59.1-134.8l-134.1,57.5l26.1,6.5c3,0.7,5.3,3,6.1,6c0.8,3,0,6.1-2.2,8.3L26.728,320.814z"/>
	<path style="fill:#3C663E;" d="M477.428,332.214h-353v-24h353c2.9,0,3-3.6,3-4v-183c0-2.7-1.1-5-2-5h-402c-2.2,0-4,1.8-4,4v121h-24
		v-121c0-15.4,12.6-28,28-28h402c14.8,0,26,12.5,26,29v183C504.428,319.914,492.528,332.214,477.428,332.214z"/>
	<path style="fill:#3C663E;" d="M253.628,204.714h-41.2c-4.7,0-8.5-3.8-8.5-8.5s3.8-8.5,8.5-8.5h41.2c4.7,0,8.5,3.8,8.5,8.5
		S258.328,204.714,253.628,204.714z"/>
	<path style="fill:#3C663E;" d="M203.328,177.814c-2.2,0-4.4-0.8-6-2.5c-3.3-3.3-3.3-8.7,0-12l29.1-29.1c3.3-3.3,8.7-3.3,12,0
		s3.3,8.7,0,12l-29.1,29.1C207.628,177.014,205.428,177.814,203.328,177.814z"/>
	<path style="fill:#3C663E;" d="M229.528,258.414c-2.2,0-4.4-0.8-6-2.5l-29.1-29.1c-3.3-3.3-3.3-8.7,0-12s8.7-3.3,12,0l29.1,29.1
		c3.3,3.3,3.3,8.7,0,12C233.928,257.614,231.728,258.414,229.528,258.414z"/>
	<path style="fill:#3C663E;" d="M366.428,240.714c-16.8,0-30.5-13.7-30.5-30.5v-42c0-4.7,3.8-8.5,8.5-8.5s8.5,3.8,8.5,8.5v42
		c0,7.4,6.1,13.5,13.5,13.5s13.5-6.1,13.5-13.5v-42c0-4.7,3.8-8.5,8.5-8.5s8.5,3.8,8.5,8.5v42
		C396.928,227.014,383.228,240.714,366.428,240.714z"/>
	<path style="fill:#3C663E;" d="M298.328,208.714h-9.9c-4.7,0-8.5-3.8-8.5-8.5c0-4.7,3.8-8.5,8.5-8.5h9.9c5.2,0,9.6-3.5,9.6-7.7
		c0-4.3-4.3-7.7-9.6-7.7h-12.9c-4.7,0-8.5-3.8-8.5-8.5s3.8-8.5,8.5-8.5h12.9c14.7,0,26.6,11.1,26.6,24.7
		S313.028,208.714,298.328,208.714z"/>
	<path style="fill:#3C663E;" d="M302.328,240.214h-15.9c-4.7,0-8.5-3.8-8.5-8.5s3.8-8.5,8.5-8.5h15.9c5.2,0,9.6-3.3,9.6-7.3
		c0-3.9-4.4-7.3-9.6-7.3h-9.9c-4.7,0-8.5-3.8-8.5-8.5c0-4.7,3.8-8.5,8.5-8.5h9.9c14.7,0,26.6,10.9,26.6,24.3
		S317.028,240.214,302.328,240.214z"/>
	<path style="fill:#3C663E;" d="M284.428,239.714c-4.7,0-8.5-3.8-8.5-8.5v-63c0-4.7,3.8-8.5,8.5-8.5s8.5,3.8,8.5,8.5v63
		C292.928,235.914,289.128,239.714,284.428,239.714z"/>
	<path style="fill:#3C663E;" d="M432.428,208.714c-2.6,0-5.1-1.2-6.8-3.4l-24-32c-2.8-3.8-2.1-9.1,1.7-11.9
		c3.8-2.8,9.1-2.1,11.9,1.7l24,32c2.8,3.8,2.1,9.1-1.7,11.9C436.028,208.114,434.228,208.714,432.428,208.714z"/>
	<path style="fill:#3C663E;" d="M432.428,208.714c-1.8,0-3.6-0.6-5.1-1.7c-3.8-2.8-4.5-8.1-1.7-11.9l24-32c2.8-3.8,8.1-4.5,11.9-1.7
		s4.5,8.1,1.7,11.9l-24,32C437.528,207.514,435.028,208.714,432.428,208.714z"/>
	<path style="fill:#3C663E;" d="M432.428,240.714c-4.7,0-8.5-3.8-8.5-8.5v-32c0-4.7,3.8-8.5,8.5-8.5s8.5,3.8,8.5,8.5v32
		C440.928,236.914,437.128,240.714,432.428,240.714z"/>
</g>
<g>
</g>
<g>
</g>
<g>
</g>
<g>
</g>
<g>
</g>
<g>
</g>
<g>
</g>
<g>
</g>
<g>
</g>
<g>
</g>
<g>
</g>
<g>
</g>
<g>
</g>
<g>
</g>
<g>
</g>
</svg>
