<?xml version="1.0" encoding="iso-8859-1"?>
<!-- Generator: Adobe Illustrator 19.0.0, SVG Export Plug-In . SVG Version: 6.00 Build 0)  -->
<svg version="1.1" id="Layer_1" xmlns="http://www.w3.org/2000/svg" xmlns:xlink="http://www.w3.org/1999/xlink" x="0px" y="0px"
	 viewBox="0 0 512 512" style="enable-background:new 0 0 512 512;" xml:space="preserve">
<rect x="3.608" y="83.92" width="504.72" height="357.96"/>
<path style="fill:#6B6B6B;" d="M505.832,95.12v344.344H6.184V95.12H505.832 M512,88.952H0v356.68h512V88.952z"/>
<path style="fill:#DBDBDB;" d="M0,96.64V32.912c0.032-8.824,7.176-15.968,16-16h480c8.824,0.032,15.968,7.176,16,16V96.64H0z"/>
<polygon style="fill:#E21B1B;" points="471.64,78.776 171.536,78.776 200.248,34.768 471.64,34.768 "/>
<g>
	<circle style="fill:#333333;" cx="53.896" cy="56.16" r="13.608"/>
	<circle style="fill:#333333;" cx="89.976" cy="56.16" r="13.608"/>
	<circle style="fill:#333333;" cx="126.056" cy="56.16" r="13.608"/>
</g>
<g>
	<path style="fill:#FFFFFF;" d="M215.648,48.48l1.912,8.328c0.408,1.952,0.8,3.952,1.176,5.944h0.072c0.368-2,0.976-4,1.504-5.912
		l2.4-8.368h3.776l2.296,8.128c0.568,2.144,1.064,4.144,1.472,6.144h0.072c0.296-2,0.728-4,1.208-6.144l2.032-8.128h4.552
		l-5.776,18.336H228l-2.184-7.456c-0.576-1.928-1.04-3.888-1.392-5.872h-0.072c-0.344,1.984-0.808,3.944-1.392,5.872l-2.336,7.456
		h-4.328l-5.416-18.336L215.648,48.48z"/>
	<path style="fill:#FFFFFF;" d="M244.408,48.48l1.928,8.328c0.408,1.952,0.8,3.952,1.16,5.944h0.088c0.368-2,0.976-4,1.504-5.912
		l2.4-8.368h3.76l2.272,8.136c0.568,2.144,1.048,4.144,1.472,6.144h0.072c0.296-2,0.712-4,1.208-6.144l2.032-8.128h4.552
		l-5.76,18.336H256.8l-2.184-7.456c-0.568-1.928-1.032-3.888-1.392-5.872h-0.072c-0.344,1.984-0.8,3.944-1.384,5.872l-2.336,7.456
		h-4.344l-5.416-18.336H244.408z"/>
	<path style="fill:#FFFFFF;" d="M273.184,48.48l1.912,8.328c0.408,1.952,0.8,3.952,1.176,5.944h0.072c0.368-2,0.976-4,1.504-5.912
		l2.4-8.368H284l2.296,8.128c0.568,2.144,1.064,4.144,1.472,6.144h0.072c0.296-2,0.728-4,1.208-6.144l2.032-8.128h4.552
		l-5.76,18.336H285.6l-2.184-7.456c-0.576-1.928-1.04-3.888-1.392-5.872h-0.104c-0.344,1.984-0.808,3.944-1.392,5.872l-2.336,7.456
		h-4.328l-5.416-18.336L273.184,48.48z"/>
	<path style="fill:#FFFFFF;" d="M296.344,64.272c-0.088-1.56,1.112-2.888,2.664-2.976c0.064,0,0.12-0.008,0.184,0
		c1.64,0.088,2.904,1.488,2.816,3.128c-0.08,1.52-1.296,2.736-2.816,2.816c-1.552,0.024-2.824-1.216-2.856-2.76
		C296.336,64.408,296.344,64.336,296.344,64.272z"/>
	<polygon style="fill:#FFFFFF;" points="440.376,69.776 437.512,66.976 447.408,56.808 436.92,46.592 439.704,43.728 
		453.056,56.736 	"/>
	<rect x="421.632" y="54.776" style="fill:#FFFFFF;" width="26.416" height="4"/>
</g>
<g>
	<rect x="67.504" y="139.864" style="fill:#666666;" width="380.536" height="8"/>
	<rect x="67.504" y="174.984" style="fill:#666666;" width="380.536" height="8"/>
	<rect x="67.504" y="210.16" style="fill:#666666;" width="380.536" height="8"/>
	<rect x="67.504" y="245.24" style="fill:#666666;" width="380.536" height="8"/>
	<rect x="67.504" y="280.4" style="fill:#666666;" width="380.536" height="8"/>
	<rect x="67.504" y="315.504" style="fill:#666666;" width="380.536" height="8"/>
	<rect x="67.504" y="350.632" style="fill:#666666;" width="380.536" height="8"/>
	<rect x="67.504" y="385.76" style="fill:#666666;" width="380.536" height="8"/>
</g>
<path style="fill:#E21B1B;" d="M256,154.808c-52.28,54.944-139.128,42.536-139.128,42.536v148.872
	C116.872,433.944,256,495.088,256,495.088s139.128-61.144,139.128-148.872v-148.88C395.128,197.336,308.28,209.736,256,154.808z"/>
<g>
	<path style="fill:#FFFFFF;" d="M248.424,383.776v-15.952c-9.344-0.096-18.512-2.568-26.632-7.2l4.44-15.456
		c7.776,4.592,16.616,7.072,25.648,7.2c10.36,0,17.432-5.096,17.432-12.992c0-7.4-5.752-12.168-17.92-16.6
		c-17.264-6.248-28.448-14.144-28.448-29.44c0-14.144,9.864-24.992,26.48-27.952V249.28h13.488v15.288
		c7.872,0.088,15.624,1.944,22.688,5.432l-4.44,15.128c-6.912-3.632-14.592-5.552-22.4-5.6c-11.504,0-15.616,5.92-15.616,11.512
		c0,6.744,5.92,10.52,19.896,16.112c18.4,6.904,26.632,15.792,26.632,30.4c-0.328,15.464-12.368,28.144-27.792,29.264v16.936
		L248.424,383.776z"/>
	<path style="fill:#FFFFFF;" d="M335.92,354.688v-8.8c-5.176-0.056-10.256-1.432-14.76-4l2.464-8.56c4.304,2.544,9.2,3.928,14.2,4
		c5.744,0,9.656-2.824,9.656-7.2c0-4.096-3.2-6.736-9.92-9.192c-9.6-3.464-15.76-7.832-15.76-16.304
		c0.176-8.168,6.52-14.864,14.664-15.48v-8.944h7.464v8.472c4.36,0.048,8.656,1.072,12.568,3l-2.464,8.384
		c-3.816-2.016-8.064-3.08-12.384-3.104c-6.4,0-8.648,3.28-8.648,6.4c0,3.736,3.272,5.832,11.016,8.928
		c10.2,3.824,14.752,8.744,14.752,16.84c-0.176,8.56-6.84,15.584-15.384,16.208v9.376L335.92,354.688z"/>
	<path style="fill:#FFFFFF;" d="M169.056,354.688v-8.8c-5.176-0.056-10.256-1.432-14.76-4l2.464-8.56c4.304,2.544,9.2,3.928,14.2,4
		c5.744,0,9.656-2.824,9.656-7.2c0-4.096-3.2-6.736-9.928-9.192c-9.552-3.464-15.752-7.832-15.752-16.304
		c0.16-8.176,6.512-14.888,14.664-15.504v-8.92h7.464v8.472c4.36,0.048,8.656,1.072,12.568,3l-2.432,8.376
		c-3.816-2.016-8.064-3.08-12.384-3.104c-6.4,0-8.648,3.28-8.648,6.4c0,3.736,3.272,5.832,11.016,8.928
		c10.2,3.824,14.752,8.744,14.752,16.84c-0.176,8.568-6.848,15.584-15.392,16.208v9.376L169.056,354.688z"/>
</g>
<g>
</g>
<g>
</g>
<g>
</g>
<g>
</g>
<g>
</g>
<g>
</g>
<g>
</g>
<g>
</g>
<g>
</g>
<g>
</g>
<g>
</g>
<g>
</g>
<g>
</g>
<g>
</g>
<g>
</g>
</svg>
